HIERARCHY
ROOT root
{
	OFFSET	0	13.1	24.9
	CHANNELS 6  Xposition Yposition Zposition Xrotation Yrotation Zrotation
	JOINT spine_1
	{
		OFFSET	0	9.99999	0
		CHANNELS 3  Xrotation Yrotation Zrotation
		JOINT spine_2
		{
			OFFSET	0	112	-10
			CHANNELS 3  Xrotation Yrotation Zrotation
			JOINT spine_3
			{
				OFFSET	0	206.5	19.3
				CHANNELS 3  Xrotation Yrotation Zrotation
				JOINT spine_4
				{
					OFFSET	0	110.4	14.6
					CHANNELS 3  Xrotation Yrotation Zrotation
					JOINT neck_1
					{
						OFFSET	0	71.8	-50.3
						CHANNELS 3  Xrotation Yrotation Zrotation
						JOINT neck_2
						{
							OFFSET	0	86.2	-25.8
							CHANNELS 3  Xrotation Yrotation Zrotation
							JOINT head_ee
							{
								OFFSET	0	179.8	-8.7
								CHANNELS 3  Xrotation Yrotation Zrotation
								End Site
								{
									OFFSET	1	0	0
								}
							}
						}
					}
					JOINT left_clavicle
					{
						OFFSET	-43.2	22.4	-70.8
						CHANNELS 3  Xrotation Yrotation Zrotation
						JOINT left_shoulder
						{
							OFFSET	-93.9	-5.79999	48.7
							CHANNELS 3  Xrotation Yrotation Zrotation
							JOINT left_elbow
							{
								OFFSET	-291.4	-30.8	15.2
								CHANNELS 3  Xrotation Yrotation Zrotation
								JOINT left_lowarm_twist
								{
									OFFSET	-110.7	-3.89999	13.6
									CHANNELS 3  Xrotation Yrotation Zrotation
									JOINT left_hand
									{
										OFFSET	-110.7	-3.89999	13.6
										CHANNELS 3  Xrotation Yrotation Zrotation
										JOINT left_ee
										{
											OFFSET	-80.8	-5.10001	12.1
											CHANNELS 3  Xrotation Yrotation Zrotation
											End Site
											{
												OFFSET	1	0	0
											}
										}
									}
								}
							}
						}
					}
					JOINT right_clavicle
					{
						OFFSET	43.2	22.4	-70.8
						CHANNELS 3  Xrotation Yrotation Zrotation
						JOINT right_shoulder
						{
							OFFSET	93.9	-5.79999	48.7
							CHANNELS 3  Xrotation Yrotation Zrotation
							JOINT right_elbow
							{
								OFFSET	291.4	-30.8	15.2
								CHANNELS 3  Xrotation Yrotation Zrotation
								JOINT right_lowarm_twist
								{
									OFFSET	110.7	-3.89999	13.6
									CHANNELS 3  Xrotation Yrotation Zrotation
									JOINT right_hand
									{
										OFFSET	110.7	-3.89999	13.6
										CHANNELS 3  Xrotation Yrotation Zrotation
										JOINT right_ee
										{
											OFFSET	80.8	-5.10001	12.1
											CHANNELS 3  Xrotation Yrotation Zrotation
											End Site
											{
												OFFSET	1	0	0
											}
										}
									}
								}
							}
						}
					}
				}
			}
		}
	}
	JOINT left_hip
	{
		OFFSET	-82.8	-127.5	0.300001
		CHANNELS 3  Xrotation Yrotation Zrotation
		JOINT left_knee
		{
			OFFSET	-28.2	-396.7	2.2
			CHANNELS 3  Xrotation Yrotation Zrotation
			JOINT left_ankle
			{
				OFFSET	-11.7	-411.3	35.4
				CHANNELS 3  Xrotation Yrotation Zrotation
				JOINT left_toes
				{
					OFFSET	0	-60	-88.6
					CHANNELS 3  Xrotation Yrotation Zrotation
					JOINT left_foot_ee
					{
						OFFSET	-22.5	-16.5	-42.2
						CHANNELS 3  Xrotation Yrotation Zrotation
						End Site
						{
							OFFSET	1	0	0
						}
					}
				}
			}
		}
	}
	JOINT right_hip
	{
		OFFSET	82.8	-127.5	0.300001
		CHANNELS 3  Xrotation Yrotation Zrotation
		JOINT right_knee
		{
			OFFSET	28.2	-396.7	2.2
			CHANNELS 3  Xrotation Yrotation Zrotation
			JOINT right_ankle
			{
				OFFSET	11.7	-411.3	35.4
				CHANNELS 3  Xrotation Yrotation Zrotation
				JOINT right_toes
				{
					OFFSET	0	-60	-88.6
					CHANNELS 3  Xrotation Yrotation Zrotation
					JOINT right_foot_ee
					{
						OFFSET	22.5	-16.5	-42.2
						CHANNELS 3  Xrotation Yrotation Zrotation
						End Site
						{
							OFFSET	1	0	0
						}
					}
				}
			}
		}
	}
}
MOTION
Frames: 7
Frame Time: 0.02
3004.16 755.331 -1300.55 -8.28905 61.9346 2.69569 2.1947 0.512683 1.58173 2.19599 0.411008 1.61114 2.20756 0.127253 1.65785 2.20393 0.387448 1.61696 -4.01542 17.9177 6.48065 -3.69654 27.9353 9.44493 -0.0 0.0 -0.0 2.09397 4.05846 4.35817 -5.55765 -18.6724 56.6616 1.24542 -31.671 0.353265 4.40365 0.134208 -0.546338 -1.43624 5.17227 -7.28016 -0.0 0.0 -0.0 11.3317 18.5606 -22.5027 -15.4943 16.5839 -61.5658 0.690809 18.8913 -0.11493 1.90067 -0.0630795 0.234551 2.85145 22.8779 -9.00249 0.0 0.0 0.0 1.30527 4.56234 14.4236 2.54834 -0.113298 -0.374583 23.8284 17.0312 -3.24547 -24.5813 0.0 0.0 -0.0 0.0 -0.0 22.2715 24.8098 4.50925 -55.2158 1.70613 -7.97768 25.7152 -1.69765 3.42554 -17.8184 0.0 0.0 0.0 0.0 0.0 
2982.69 760.125 -1294.83 -7.06852 60.3782 1.3982 2.3056 0.438021 1.6123 2.30699 0.334552 1.6369 2.31647 0.0506444 1.66996 2.31271 0.313712 1.64102 -3.45749 18.1398 6.2301 -3.09363 28.3828 9.10703 -0.0 0.0 -0.0 1.93229 6.08425 4.21924 -5.32778 -18.0526 55.6449 1.46462 -35.9597 0.475336 1.16636 0.039633 -0.143692 -1.55922 5.81415 -7.79774 -0.0 0.0 -0.0 11.1311 18.5668 -22.0471 -15.4746 15.4572 -61.2462 0.524268 14.5587 -0.0669686 3.48628 -0.109722 0.431713 2.81252 26.7872 -6.7668 0.0 0.0 0.0 -2.21791 3.9169 16.7233 4.86823 -0.230864 -0.711003 23.8844 17.5575 -3.25776 -25.2768 0.0 0.0 -0.0 0.0 -0.0 24.7032 24.8729 4.1133 -53.4998 1.54044 -7.77155 17.4756 -6.78471 2.41312 -16.8289 0.0 0.0 0.0 0.0 0.0 
2967.6 757.869 -1290.03 -5.15336 57.0785 -1.12817 2.35857 0.528422 1.66766 2.36002 0.421249 1.6979 2.37243 0.12742 1.74471 2.36841 0.401325 1.70271 -4.47394 18.3229 5.68049 -4.187 29.421 8.7956 -0.0 0.0 -0.0 1.95808 8.10473 4.41966 -4.09949 -17.7257 54.464 1.65545 -39.3508 0.591971 -1.4671 -0.053997 0.179564 -1.80879 5.36299 -9.66328 -0.0 0.0 -0.0 11.245 18.8911 -22.2851 -15.7604 14.7425 -61.09 0.339693 9.5521 -0.0283819 4.02524 -0.12433 0.499009 2.60796 27.4188 -5.13279 0.0 0.0 0.0 -4.20458 5.8989 18.3378 6.3587 -0.313565 -0.924574 25.3392 20.2169 -3.4666 -25.5521 0.0 0.0 -0.0 0.0 -0.0 27.7292 20.0986 3.9744 -49.5677 1.18473 -7.28145 13.1752 -8.4282 1.85141 -15.7628 0.0 0.0 0.0 0.0 0.0 
2952.43 755.875 -1288.05 -5.15552 56.6901 -1.14219 2.39758 0.483558 1.62514 2.39897 0.379181 1.65261 2.40981 0.094721 1.69289 2.40599 0.360856 1.6567 -4.84967 18.0692 5.38107 -4.60505 29.2737 8.5385 -0.0 0.0 -0.0 1.96081 9.14824 4.5017 -2.18191 -18.2218 53.3274 1.85657 -42.6003 0.723908 -3.5817 -0.139886 0.435849 -1.84779 5.28255 -9.96101 -0.0 0.0 -0.0 11.1047 18.3167 -22.0026 -16.4214 13.8172 -60.4174 0.254741 7.19238 -0.0160099 4.71796 -0.142174 0.585698 2.46934 28.307 -3.80236 0.0 0.0 0.0 -5.36294 4.0876 19.4228 6.81337 -0.339899 -0.989298 26.6502 19.3639 -3.60989 -25.4773 0.0 0.0 -0.0 0.0 -0.0 29.7392 21.3809 1.39667 -47.4705 1.00907 -7.01055 8.98873 -14.6403 1.29084 -15.3903 0.0 0.0 0.0 0.0 0.0 
2941.71 753.067 -1292.12 -4.56906 54.3802 -1.91099 2.40097 0.570503 1.73203 2.40253 0.45915 1.76481 2.41658 0.154853 1.81696 2.41224 0.43982 1.76973 -7.68895 19.2147 6.22495 -7.68968 31.5366 10.3217 -0.0 0.0 -0.0 1.76443 11.1972 4.31562 -0.33349 -17.1886 51.4492 2.15946 -46.9237 0.937342 -5.79427 -0.239832 0.700475 -1.89492 5.58627 -10.1309 -0.0 0.0 -0.0 11.26 18.9199 -22.3175 -16.6569 13.1983 -60.596 0.192134 5.43702 -0.00912296 6.0718 -0.174015 0.755705 1.89517 25.6478 -1.41812 0.0 0.0 0.0 -6.03534 4.29927 20.2184 6.20812 -0.304957 -0.903094 28.059 24.7427 -3.87398 -25.0223 0.0 0.0 -0.0 0.0 -0.0 30.3864 13.1082 2.04296 -40.7638 0.516071 -6.10486 8.02918 -9.45259 1.14919 -16.9794 0.0 0.0 0.0 0.0 0.0 
2932.39 753.479 -1293.55 -4.66024 53.3916 -1.71798 2.40426 0.602737 1.75929 2.40585 0.489587 1.79406 2.42109 0.180082 1.8509 2.41662 0.47009 1.79926 -8.32246 19.7845 5.48983 -8.43954 33.2859 9.93627 -0.0 0.0 -0.0 1.64178 12.6781 4.22153 0.478236 -17.01 49.8791 2.43975 -50.3873 1.14787 -8.03653 -0.35149 0.96457 -1.79161 4.67809 -9.87133 -0.0 0.0 -0.0 11.4775 19.6696 -22.7624 -16.8281 11.0882 -60.3696 0.153438 4.34673 -0.00582305 7.38895 -0.201129 0.921771 1.35341 23.83 1.25172 0.0 0.0 0.0 -6.2625 4.25964 20.4163 5.57635 -0.26946 -0.812733 28.4333 25.7897 -3.94282 -24.8791 0.0 0.0 -0.0 0.0 -0.0 30.2765 10.1465 1.98941 -34.7946 0.16923 -5.256 5.62982 -3.61048 0.814107 -17.7219 0.0 0.0 0.0 0.0 0.0 
2922.71 755.758 -1295.37 -5.06634 53.294 -0.973579 2.06983 0.459081 1.86667 2.0717 0.339391 1.89209 2.08292 0.00407315 1.92227 2.07789 0.307554 1.89752 -7.17073 20.4431 3.76999 -7.19154 35.4608 8.05792 -0.0 0.0 -0.0 1.66566 13.042 4.28859 3.44943 -16.6789 48.8197 2.63693 -52.5553 1.30215 -8.5134 -0.376568 1.02017 -1.56049 4.22481 -8.5407 -0.0 0.0 -0.0 11.609 20.0509 -23.0356 -16.8332 9.69584 -60.3826 0.17786 5.03526 -0.00782038 8.26186 -0.21699 1.03215 0.867697 20.3916 2.9088 0.0 0.0 0.0 -5.95993 3.82922 19.8896 4.96442 -0.236032 -0.724848 29.0275 26.8193 -4.03944 -24.8295 0.0 0.0 -0.0 0.0 -0.0 32.2018 9.05945 -0.65161 -27.6503 -0.126868 -4.20037 4.97141 2.4706 0.730623 -17.4976 0.0 0.0 0.0 0.0 0.0 
